<svg xmlns="http://www.w3.org/2000/svg" xmlns:svg="http://www.w3.org/2000/svg" id="svg3763" width="24" height="24" version="1.1" viewBox="0 0 24 24"><metadata id="metadata3769"/><g id="layer2" style="display:inline"><path id="path3761-3" d="M 12 1 A 5 5 0 0 0 7 6 L 7 8 L 6 8 C 4.9 8 4 8.8900004 4 10 L 4 20 A 2 2 0 0 0 6 22 L 18 22 A 2 2 0 0 0 20 20 L 20 10 A 2 2 0 0 0 18 8 L 17 8 L 17 6 A 5 5 0 0 0 12 1 z M 12 3 A 3 3 0 0 1 15 6 L 15 8 L 9 8 L 9 6 A 3 3 0 0 1 12 3 z M 12.072266 9.8847656 A 5.0000001 5.0000001 0 0 1 17.072266 14.884766 A 5.0000001 5.0000001 0 0 1 12.072266 19.884766 A 5.0000001 5.0000001 0 0 1 7.0722656 14.884766 A 5.0000001 5.0000001 0 0 1 12.072266 9.8847656 z M 12.072266 10.884766 A 4.0000001 4.0000001 0 0 0 8.0722656 14.884766 C 8.0722656 15.809766 8.3871094 16.659844 8.9121094 17.339844 L 14.527344 11.724609 C 13.847344 11.199609 12.997266 10.884766 12.072266 10.884766 z M 15.232422 12.429688 L 9.6171875 18.044922 C 10.297187 18.569922 11.147267 18.884766 12.072266 18.884766 A 4.0000001 4.0000001 0 0 0 16.072266 14.884766 C 16.072266 13.959766 15.757422 13.109688 15.232422 12.429688 z"/></g></svg>