<svg xmlns="http://www.w3.org/2000/svg" xmlns:svg="http://www.w3.org/2000/svg" id="svg4" width="24" height="24" version="1.1" viewBox="0 0 24 24"><metadata id="metadata10"/><g id="g4012"><path id="circle4010" d="M 12 2.4003906 A 9.6000004 9.6000004 0 0 0 2.4003906 12 A 9.6000004 9.6000004 0 0 0 12 21.599609 A 9.6000004 9.6000004 0 0 0 21.599609 12 A 9.6000004 9.6000004 0 0 0 12 2.4003906 z M 12.019531 4.4121094 L 15.746094 8.140625 L 12.847656 8.140625 L 12.847656 13.451172 L 7.8769531 18.421875 L 6.7089844 17.253906 L 11.189453 12.771484 L 11.189453 8.140625 L 8.2910156 8.140625 L 12.019531 4.4121094 z M 14.503906 14.427734 L 17.328125 17.253906 L 16.160156 18.421875 L 13.335938 15.595703 L 14.503906 14.427734 z"/></g></svg>