<svg xmlns="http://www.w3.org/2000/svg" viewBox="0 0 73.218 80.85"><title>truenas_enterprise-logo-mark-full-color-rgb</title><g id="full-rgb"><g id="logoMark"><polygon id="logoMark_PathItem_" points="70.028 17.446 56.514 25.255 40.552 16.039 39.81 15.607 39.81 0 70.028 17.446" data-name="logoMark &lt;PathItem&gt;" style="fill:#0095d5"/><polygon id="logoMark_PathItem_2" points="33.43 0 33.43 15.607 32.178 16.327 16.704 25.255 3.19 17.446 33.43 0" data-name="logoMark &lt;PathItem&gt;" style="fill:#31beec"/><polygon id="logoMark_PathItem_3" points="73.218 45.958 73.218 61.565 39.81 80.85 39.81 65.253 73.218 45.958" data-name="logoMark &lt;PathItem&gt;" style="fill:#31beec"/><polygon id="logoMark_PathItem_4" points="73.218 22.979 73.218 38.586 39.81 57.871 39.81 42.275 73.218 22.979" data-name="logoMark &lt;PathItem&gt;" style="fill:#31beec"/><polygon id="logoMark_PathItem_5" points="33.43 65.253 33.43 80.85 .011 61.554 0 45.958 15.098 54.675 15.164 54.708 33.43 65.253" data-name="logoMark &lt;PathItem&gt;" style="fill:#0095d5"/><polygon id="logoMark_PathItem_6" points="33.43 42.275 33.43 57.871 .011 38.575 0 22.979 15.098 31.696 15.164 31.73 33.43 42.275" data-name="logoMark &lt;PathItem&gt;" style="fill:#0095d5"/><polygon id="logoMark_PathItem_7" points="50.244 28.949 36.731 36.747 23.206 28.949 36.731 21.14 50.244 28.949" data-name="logoMark &lt;PathItem&gt;" style="fill:#aeadae"/></g></g></svg>